<?xml version="1.0" encoding="UTF-8" standalone="no"?>
<svg
   inkscape:export-ydpi="300"
   inkscape:export-xdpi="300"
   inkscape:export-filename="Soylent Majority.pdf"
   sodipodi:docname="Soylent Majority.svg"
   inkscape:version="1.3 (0e150ed6c4, 2023-07-21)"
   id="svg8"
   version="1.1"
   viewBox="0 0 297 210"
   height="210mm"
   width="297mm"
   xmlns:inkscape="http://www.inkscape.org/namespaces/inkscape"
   xmlns:sodipodi="http://sodipodi.sourceforge.net/DTD/sodipodi-0.dtd"
   xmlns="http://www.w3.org/2000/svg"
   xmlns:svg="http://www.w3.org/2000/svg"
   xmlns:rdf="http://www.w3.org/1999/02/22-rdf-syntax-ns#"
   xmlns:cc="http://creativecommons.org/ns#"
   xmlns:dc="http://purl.org/dc/elements/1.1/">
  <defs
     id="defs2">
    <marker
       inkscape:isstock="true"
       style="overflow:visible"
       id="marker2091"
       refX="0.0"
       refY="0.0"
       orient="auto"
       inkscape:stockid="TriangleOutL">
      <path
         transform="scale(0.8)"
         style="fill-rule:evenodd;stroke:#00f607;stroke-width:1pt;stroke-opacity:1;fill:#00f607;fill-opacity:1"
         d="M 5.77,0.0 L -2.88,5.0 L -2.88,-5.0 L 5.77,0.0 z "
         id="path2089" />
    </marker>
    <marker
       inkscape:collect="always"
       inkscape:stockid="TriangleOutL"
       orient="auto"
       refY="0.0"
       refX="0.0"
       id="marker2021"
       style="overflow:visible"
       inkscape:isstock="true">
      <path
         id="path2019"
         d="M 5.77,0.0 L -2.88,5.0 L -2.88,-5.0 L 5.77,0.0 z "
         style="fill-rule:evenodd;stroke:#00f607;stroke-width:1pt;stroke-opacity:1;fill:#00f607;fill-opacity:1"
         transform="scale(0.8)" />
    </marker>
    <marker
       inkscape:collect="always"
       inkscape:isstock="true"
       style="overflow:visible"
       id="TriangleOutL"
       refX="0.0"
       refY="0.0"
       orient="auto"
       inkscape:stockid="TriangleOutL">
      <path
         transform="scale(0.8)"
         style="fill-rule:evenodd;stroke:#00f607;stroke-width:1pt;stroke-opacity:1;fill:#00f607;fill-opacity:1"
         d="M 5.77,0.0 L -2.88,5.0 L -2.88,-5.0 L 5.77,0.0 z "
         id="path1076" />
    </marker>
    <marker
       inkscape:isstock="true"
       style="overflow:visible;"
       id="Arrow2Lend"
       refX="0.0"
       refY="0.0"
       orient="auto"
       inkscape:stockid="Arrow2Lend">
      <path
         transform="scale(1.1) rotate(180) translate(1,0)"
         d="M 8.7185878,4.0337352 L -2.2072895,0.016013256 L 8.7185884,-4.0017078 C 6.9730900,-1.6296469 6.9831476,1.6157441 8.7185878,4.0337352 z "
         style="fill-rule:evenodd;stroke-width:0.625;stroke-linejoin:round;stroke:#000000;stroke-opacity:1;fill:#000000;fill-opacity:1"
         id="path955" />
    </marker>
    <marker
       inkscape:stockid="Arrow2Lend"
       orient="auto"
       refY="0"
       refX="0"
       id="Arrow2Lend-3"
       style="overflow:visible"
       inkscape:isstock="true">
      <path
         id="path955-5"
         style="fill:#000000;fill-opacity:1;fill-rule:evenodd;stroke:#000000;stroke-width:0.625;stroke-linejoin:round;stroke-opacity:1"
         d="M 8.7185878,4.0337352 -2.2072895,0.01601326 8.7185884,-4.0017078 c -1.7454984,2.3720609 -1.7354408,5.6174519 -6e-7,8.035443 z"
         transform="matrix(-1.1,0,0,-1.1,-1.1,0)" />
    </marker>
    <marker
       inkscape:isstock="true"
       style="overflow:visible"
       id="Arrow2Lend-3-0"
       refX="0"
       refY="0"
       orient="auto"
       inkscape:stockid="Arrow2Lend">
      <path
         transform="matrix(-1.1,0,0,-1.1,-1.1,0)"
         d="M 8.7185878,4.0337352 -2.2072895,0.01601326 8.7185884,-4.0017078 c -1.7454984,2.3720609 -1.7354408,5.6174519 -6e-7,8.035443 z"
         style="fill:#000000;fill-opacity:1;fill-rule:evenodd;stroke:#000000;stroke-width:0.625;stroke-linejoin:round;stroke-opacity:1"
         id="path955-5-3" />
    </marker>
    <marker
       inkscape:stockid="Arrow2Lend"
       orient="auto"
       refY="0"
       refX="0"
       id="Arrow2Lend-3-0-9"
       style="overflow:visible"
       inkscape:isstock="true">
      <path
         id="path955-5-3-5"
         style="fill:#000000;fill-opacity:1;fill-rule:evenodd;stroke:#000000;stroke-width:0.625;stroke-linejoin:round;stroke-opacity:1"
         d="M 8.7185878,4.0337352 -2.2072895,0.01601326 8.7185884,-4.0017078 c -1.7454984,2.3720609 -1.7354408,5.6174519 -6e-7,8.035443 z"
         transform="matrix(-1.1,0,0,-1.1,-1.1,0)" />
    </marker>
    <marker
       inkscape:stockid="Arrow2Lend"
       orient="auto"
       refY="0"
       refX="0"
       id="Arrow2Lend-0"
       style="overflow:visible"
       inkscape:isstock="true">
      <path
         id="path955-1"
         style="fill:#000000;fill-opacity:1;fill-rule:evenodd;stroke:#000000;stroke-width:0.625;stroke-linejoin:round;stroke-opacity:1"
         d="M 8.7185878,4.0337352 -2.2072895,0.01601326 8.7185884,-4.0017078 c -1.7454984,2.3720609 -1.7354408,5.6174519 -6e-7,8.035443 z"
         transform="matrix(-1.1,0,0,-1.1,-1.1,0)" />
    </marker>
    <marker
       inkscape:isstock="true"
       style="overflow:visible"
       id="Arrow2Lend-3-4"
       refX="0"
       refY="0"
       orient="auto"
       inkscape:stockid="Arrow2Lend">
      <path
         transform="matrix(-1.1,0,0,-1.1,-1.1,0)"
         d="M 8.7185878,4.0337352 -2.2072895,0.01601326 8.7185884,-4.0017078 c -1.7454984,2.3720609 -1.7354408,5.6174519 -6e-7,8.035443 z"
         style="fill:#000000;fill-opacity:1;fill-rule:evenodd;stroke:#000000;stroke-width:0.625;stroke-linejoin:round;stroke-opacity:1"
         id="path955-5-8" />
    </marker>
  </defs>
  <sodipodi:namedview
     inkscape:lockguides="true"
     inkscape:guide-bbox="true"
     showguides="true"
     inkscape:window-maximized="1"
     inkscape:window-y="1070"
     inkscape:window-x="2712"
     inkscape:window-height="1017"
     inkscape:window-width="1920"
     showgrid="false"
     inkscape:document-rotation="0"
     inkscape:current-layer="layer1"
     inkscape:document-units="mm"
     inkscape:cy="193.94929"
     inkscape:cx="638.41641"
     inkscape:zoom="0.49497475"
     inkscape:pageshadow="2"
     inkscape:pageopacity="0.0"
     borderopacity="1.0"
     bordercolor="#666666"
     pagecolor="#ffffff"
     id="base"
     inkscape:showpageshadow="0"
     inkscape:pagecheckerboard="0"
     inkscape:deskcolor="#d1d1d1">
    <sodipodi:guide
       inkscape:color="rgb(0,0,255)"
       inkscape:locked="true"
       inkscape:label="Center"
       id="guide1558"
       orientation="0,1"
       position="-10,140" />
    <sodipodi:guide
       inkscape:color="rgb(0,0,255)"
       inkscape:locked="true"
       inkscape:label=""
       id="guide1560"
       orientation="-1,0"
       position="135,215" />
    <sodipodi:guide
       inkscape:color="rgb(0,0,255)"
       inkscape:locked="true"
       inkscape:label="Centre of circle"
       id="guide1562"
       orientation="0,1"
       position="-10,142" />
  </sodipodi:namedview>
  <metadata
     id="metadata5">
    <rdf:RDF>
      <cc:Work
         rdf:about="">
        <dc:format>image/svg+xml</dc:format>
        <dc:type
           rdf:resource="http://purl.org/dc/dcmitype/StillImage" />
        <dc:title />
      </cc:Work>
    </rdf:RDF>
  </metadata>
  <g
     id="layer1"
     inkscape:groupmode="layer"
     inkscape:label="Layer 1">
    <rect
       y="20"
       x="20.000002"
       height="100"
       width="230"
       id="rect833"
       style="fill:#009a86;fill-opacity:1;stroke-width:0.0750945" />
    <rect
       style="fill:#cfe100;fill-opacity:1;stroke-width:0.0531169"
       id="rect863-9"
       width="230"
       height="2"
       x="20.000002"
       y="117.8224" />
    <text
       xml:space="preserve"
       style="font-style:normal;font-weight:normal;font-size:12.9779px;line-height:1.25;font-family:sans-serif;letter-spacing:0px;word-spacing:0px;fill:#000000;fill-opacity:1;stroke:none;stroke-width:0.324451"
       x="134.64447"
       y="34.132034"
       id="text889-5"><tspan
         sodipodi:role="line"
         id="tspan887-2"
         x="134.64447"
         y="34.132034"
         style="text-align:center;text-anchor:middle;fill:#000000;fill-opacity:1;stroke-width:0.324451">SOYLENT</tspan><tspan
         sodipodi:role="line"
         x="134.64447"
         y="50.354408"
         style="text-align:center;text-anchor:middle;fill:#000000;fill-opacity:1;stroke-width:0.324451"
         id="tspan891-4">MAJORITY</tspan></text>
    <text
       id="text889"
       y="33.632034"
       x="134.14439"
       style="font-style:normal;font-weight:normal;font-size:12.9779px;line-height:1.25;font-family:sans-serif;letter-spacing:0px;word-spacing:0px;fill:#cfe210;fill-opacity:1;stroke:none;stroke-width:0.32445"
       xml:space="preserve"><tspan
         style="text-align:center;text-anchor:middle;fill:#cfe210;fill-opacity:1;stroke-width:0.32445"
         y="33.632034"
         x="134.14439"
         id="tspan887"
         sodipodi:role="line">SOYLENT</tspan><tspan
         id="tspan891"
         style="text-align:center;text-anchor:middle;fill:#cfe210;fill-opacity:1;stroke-width:0.32445"
         y="49.854408"
         x="134.14439"
         sodipodi:role="line">MAJORITY</tspan></text>
    <rect
       transform="rotate(45)"
       y="43.487068"
       x="88.034798"
       height="16.263456"
       width="16.263456"
       id="rect1424"
       style="fill:#00363b;fill-opacity:1;stroke-width:0.256911;stroke-miterlimit:3;stroke-dasharray:none" />
    <rect
       style="fill:#00363b;fill-opacity:1;stroke-width:0.256911;stroke-miterlimit:3;stroke-dasharray:none"
       id="rect1424-2"
       width="16.263456"
       height="16.263456"
       x="71.771339"
       y="27.223612"
       transform="rotate(45)" />
    <rect
       style="fill:#00363b;fill-opacity:1;stroke-width:0.256911;stroke-miterlimit:3;stroke-dasharray:none"
       id="rect1424-5"
       width="16.263456"
       height="16.263456"
       x="104.29825"
       y="27.223608"
       transform="rotate(45)" />
    <rect
       transform="rotate(45)"
       y="10.960154"
       x="88.034798"
       height="16.263456"
       width="16.263456"
       id="rect1424-2-9"
       style="fill:#00363b;fill-opacity:1;stroke-width:0.256911;stroke-miterlimit:3;stroke-dasharray:none" />
    <rect
       style="fill:#00363b;fill-opacity:1;stroke-width:0.256911;stroke-miterlimit:3;stroke-dasharray:none"
       id="rect1424-3"
       width="16.263456"
       height="16.263456"
       x="120.56171"
       y="10.96015"
       transform="rotate(45)" />
    <rect
       transform="rotate(45)"
       y="-5.3033037"
       x="104.29826"
       height="16.263456"
       width="16.263456"
       id="rect1424-2-3"
       style="fill:#00363b;fill-opacity:1;stroke-width:0.256911;stroke-miterlimit:3;stroke-dasharray:none" />
    <rect
       transform="matrix(0.74556632,0.66643143,-0.74556632,0.66643143,0,0)"
       y="3.7236273"
       x="138.48438"
       height="15.388421"
       width="15.388421"
       id="rect1424-5-8"
       style="fill:#00363b;fill-opacity:1;stroke-width:0.243088;stroke-miterlimit:3;stroke-dasharray:none" />
    <rect
       style="fill:#00363b;fill-opacity:1;stroke-width:0.256911;stroke-miterlimit:3;stroke-dasharray:none"
       id="rect1424-2-9-2"
       width="16.263456"
       height="16.263456"
       x="120.56171"
       y="-21.566767"
       transform="rotate(45)" />
    <rect
       transform="rotate(45)"
       y="-37.830223"
       x="136.82518"
       height="16.263456"
       width="16.263456"
       id="rect1424-2-1"
       style="fill:#00363b;fill-opacity:1;stroke-width:0.256911;stroke-miterlimit:3;stroke-dasharray:none" />
    <rect
       transform="matrix(0.74556632,0.66643143,-0.74556632,0.66643143,0,0)"
       y="-27.053226"
       x="169.26112"
       height="15.388421"
       width="15.388421"
       id="rect1424-5-5"
       style="fill:#00363b;fill-opacity:1;stroke-width:0.243088;stroke-miterlimit:3;stroke-dasharray:none" />
    <rect
       style="fill:#00363b;fill-opacity:1;stroke-width:0.256911;stroke-miterlimit:3;stroke-dasharray:none"
       id="rect1424-2-9-9"
       width="16.263456"
       height="16.263456"
       x="153.08865"
       y="-54.093681"
       transform="rotate(45)" />
    <rect
       style="fill:#00363b;fill-opacity:1;stroke-width:0.256911;stroke-miterlimit:3;stroke-dasharray:none"
       id="rect1424-7"
       width="16.263456"
       height="16.263456"
       x="185.61557"
       y="-54.093681"
       transform="rotate(45)" />
    <rect
       transform="rotate(45)"
       y="-70.357132"
       x="169.35211"
       height="16.263456"
       width="16.263456"
       id="rect1424-2-19"
       style="fill:#00363b;fill-opacity:1;stroke-width:0.256911;stroke-miterlimit:3;stroke-dasharray:none" />
    <rect
       transform="rotate(45)"
       y="-70.35714"
       x="201.87903"
       height="16.263456"
       width="16.263456"
       id="rect1424-5-6"
       style="fill:#00363b;fill-opacity:1;stroke-width:0.256911;stroke-miterlimit:3;stroke-dasharray:none" />
    <rect
       style="fill:#00363b;fill-opacity:1;stroke-width:0.256911;stroke-miterlimit:3;stroke-dasharray:none"
       id="rect1424-2-9-3"
       width="16.263456"
       height="16.263456"
       x="185.61557"
       y="-86.62059"
       transform="rotate(45)" />
    <rect
       transform="rotate(45)"
       y="-86.620598"
       x="218.14249"
       height="16.263456"
       width="16.263456"
       id="rect1424-3-6"
       style="fill:#00363b;fill-opacity:1;stroke-width:0.256911;stroke-miterlimit:3;stroke-dasharray:none" />
    <rect
       style="fill:#00363b;fill-opacity:1;stroke-width:0.256911;stroke-miterlimit:3;stroke-dasharray:none"
       id="rect1424-2-3-6"
       width="16.263456"
       height="16.263456"
       x="201.87903"
       y="-102.88406"
       transform="rotate(45)" />
    <rect
       style="fill:#00363b;fill-opacity:1;stroke-width:0.256911;stroke-miterlimit:3;stroke-dasharray:none"
       id="rect1424-5-8-5"
       width="16.263456"
       height="16.263456"
       x="234.40594"
       y="-102.88406"
       transform="rotate(45)" />
    <rect
       transform="rotate(45)"
       y="-119.1475"
       x="218.14249"
       height="16.263456"
       width="16.263456"
       id="rect1424-2-9-2-9"
       style="fill:#00363b;fill-opacity:1;stroke-width:0.256911;stroke-miterlimit:3;stroke-dasharray:none" />
    <rect
       y="60"
       x="20.000002"
       height="4"
       width="230"
       id="rect863"
       style="fill:#cfe100;fill-opacity:1;stroke-width:0.0751187" />
    <rect
       y="64"
       x="20.000002"
       height="12"
       width="230"
       id="rect865"
       style="fill:#e6042d;fill-opacity:1;stroke-width:0.0831962" />
    <circle
       r="14"
       cy="68"
       cx="135.5"
       id="path885"
       style="fill:#008936;fill-opacity:1;stroke-width:0.0514485" />
    <circle
       style="fill:#000000;fill-opacity:1;stroke-width:0.0496111"
       id="path885-5"
       cx="135.5"
       cy="68"
       r="13.5" />
    <g
       transform="matrix(1.9345196,0,0,1.9769579,-61.543624,-158.25393)"
       id="g2561">
      <path
         sodipodi:nodetypes="csc"
         id="path1362-0-7-0"
         d="m 100.69803,118.14588 c -3.421034,-0.003 -4.131882,-0.25404 -4.156548,-1.73752 -0.01344,-0.80832 0.628833,-1.87989 1.361737,-3.09011"
         style="fill:none;stroke:#00f607;stroke-width:1;stroke-linecap:butt;stroke-linejoin:miter;stroke-miterlimit:4;stroke-dasharray:none;stroke-opacity:1" />
      <path
         sodipodi:nodetypes="cc"
         id="path1362-1"
         d="m 98.394453,112.5245 c 2.991027,-4.5948 3.184097,-4.67 6.949217,0.35626"
         style="fill:none;stroke:#00f607;stroke-width:0.930931;stroke-linecap:butt;stroke-linejoin:miter;stroke-miterlimit:4;stroke-dasharray:none;stroke-opacity:1" />
      <path
         style="fill:none;stroke:#00f607;stroke-width:1;stroke-linecap:butt;stroke-linejoin:miter;stroke-miterlimit:4;stroke-dasharray:none;stroke-opacity:1"
         d="m 105.82041,114.07852 c 1.45694,3.39331 1.40797,4.12644 -3.4384,4.10077"
         id="path1362-0-4"
         sodipodi:nodetypes="cc" />
      <path
         style="fill:none;stroke:#00f607;stroke-width:0.264583px;stroke-linecap:butt;stroke-linejoin:miter;stroke-opacity:1;marker-end:url(#TriangleOutL)"
         d="m 97.22037,114.28718 c 0,0 -0.389251,0.78415 0.33087,-0.35778"
         id="path1362-0-7"
         sodipodi:nodetypes="cc" />
      <path
         style="fill:none;stroke:#00f607;stroke-width:0.264583px;stroke-linecap:butt;stroke-linejoin:miter;stroke-opacity:1;marker-end:url(#marker2091)"
         d="m 104.64188,111.94799 c 0,0 -0.23729,-0.17849 0.33563,0.72016"
         id="path1362"
         sodipodi:nodetypes="cc" />
      <path
         sodipodi:nodetypes="cc"
         id="path1362-0"
         d="m 103.41562,118.21784 c 0,0 -0.23844,-0.0149 -1.03361,-0.0386"
         style="fill:none;stroke:#00f607;stroke-width:0.264583px;stroke-linecap:butt;stroke-linejoin:miter;stroke-opacity:1;marker-end:url(#marker2021)" />
    </g>
    <g
       transform="translate(20.000001,24.499817)"
       id="g2789">
      <circle
         style="fill:#00f607;fill-opacity:1;stroke:none;stroke-width:0.350157;stroke-miterlimit:4;stroke-dasharray:none;stroke-opacity:1"
         id="path2617"
         cx="115"
         cy="38"
         r="1" />
      <rect
         style="fill:#00f607;fill-opacity:1;stroke:none;stroke-width:0.23234;stroke-miterlimit:4;stroke-dasharray:none;stroke-opacity:1"
         id="rect2683"
         width="1"
         height="4.5"
         x="113.75"
         y="43"
         ry="0.49999997" />
      <rect
         y="43"
         x="115.25"
         height="4.5"
         width="1"
         id="rect2683-8"
         style="fill:#00f607;fill-opacity:1;stroke:none;stroke-width:0.23234;stroke-miterlimit:4;stroke-dasharray:none;stroke-opacity:1"
         ry="0.49999997" />
      <rect
         y="38.790279"
         x="114.5"
         height="3.9472959"
         width="1"
         id="rect2683-4"
         style="fill:#00f607;fill-opacity:1;stroke:none;stroke-width:0.217604;stroke-miterlimit:4;stroke-dasharray:none;stroke-opacity:1" />
      <rect
         style="fill:#00f607;fill-opacity:1;stroke:none;stroke-width:0.346351;stroke-miterlimit:4;stroke-dasharray:none;stroke-opacity:1"
         id="rect2683-4-7"
         width="2.5"
         height="4"
         x="113.75"
         y="39.5" />
      <rect
         y="39.5"
         x="112.75"
         height="3.5"
         width="0.75"
         id="rect2683-3"
         style="fill:#00f607;fill-opacity:1;stroke:none;stroke-width:0.177452;stroke-miterlimit:4;stroke-dasharray:none;stroke-opacity:1"
         ry="0.375" />
      <rect
         style="fill:#00f607;fill-opacity:1;stroke:none;stroke-width:0.177452;stroke-miterlimit:4;stroke-dasharray:none;stroke-opacity:1"
         id="rect2683-8-5"
         width="0.75"
         height="3.5"
         x="116.5"
         y="39.5"
         ry="0.375" />
      <rect
         style="fill:#00f607;fill-opacity:1;stroke:none;stroke-width:0.234121;stroke-miterlimit:4;stroke-dasharray:none;stroke-opacity:1"
         id="rect2683-3-4"
         width="4.500001"
         height="1.0153941"
         x="112.75"
         y="39.5"
         ry="0.36378193" />
    </g>
    <path
       sodipodi:nodetypes="ccccccccccsssss"
       d="m 153.84789,94.753205 -0.17491,3.489229 -1.32807,4.544526 -4.98181,14.27913 h -44.39586 l -0.84574,-1.29252 -2.93126,-13.22727 -0.418649,-2.26434 0.519927,-2.037453 c 4.501712,-15.714633 38.930422,-3.565456 54.556372,-3.491302 z m 0,0.01869 c 0,5.910115 -11.39002,10.701215 -25.44032,10.701215 -14.05031,0 -28.25433,-9.464301 -24.94759,-13.020741 4.22614,-4.545262 10.44408,-9.57753 24.4944,-9.57753 14.05029,0 25.89351,5.98694 25.89351,11.897056 z"
       style="fill:#f0e3b2;fill-opacity:1;stroke:none;stroke-width:0.230553;stroke-miterlimit:4;stroke-dasharray:none;stroke-opacity:1"
       id="rect2829" />
    <rect
       style="fill:#e6042d;fill-opacity:1;stroke-width:0.0339647"
       id="rect865-6"
       width="230"
       height="2"
       x="20.000002"
       y="116" />
    <path
       sodipodi:nodetypes="sssssssssssssssssssssssssss"
       d="m 150.29592,98.327732 c -0.39799,2.041618 -3.13547,3.712678 -5.81329,5.104008 -4.07315,2.11632 -9.09209,3.49568 -17.65156,4.44679 -14.18673,1.5764 -26.23899,-1.08691 -26.919493,-5.94865 -0.186583,-1.33301 1.135683,-3.78721 3.043513,-5.532708 0.39339,-0.359919 0.90357,-0.346551 1.32882,-0.666922 0.68724,-0.517754 0.509,-0.841557 1.40127,-1.216676 0.79091,-0.332504 2.28002,1.562741 3.17509,1.197974 0.66627,-0.271529 1.65099,-0.733823 2.37712,-1.404689 0.77401,-0.715104 1.29241,-1.63815 2.09649,-1.847872 1.03478,-0.269896 2.24447,1.375551 3.32757,1.119665 0.60282,-0.142415 0.47959,-1.209049 1.0952,-1.339031 0.74435,-0.157161 1.56852,0.318021 2.32959,0.173204 0.97621,-0.185756 2.17095,-1.127933 3.16064,-1.279351 1.61668,-0.247346 1.58118,0.891251 3.23549,0.707427 0.95274,-0.105865 2.6933,-0.953183 4.47148,-1.449529 1.26707,-0.353675 2.66783,-0.403667 3.29677,-0.449002 0.79782,-0.05751 0.91553,1.207287 1.64994,1.183451 1.37423,-0.04461 2.89792,-1.245804 4.07985,-1.22225 1.56572,0.0312 1.3737,1.355079 2.59339,1.599139 0.99302,0.198699 2.01979,0.138365 2.91318,0.369306 0.62966,0.162764 1.15845,0.812313 1.34018,1.502973 0.15643,0.59467 -0.0307,1.234437 0.37551,1.449441 0.64126,0.339404 1.31022,0.472418 1.73276,0.91058 0.36622,0.379742 0.49948,1.072149 0.85644,1.302892 0.20349,0.131545 0.55862,1.009952 0.50405,1.289834 z"
       style="fill:#ca7847;fill-opacity:1;stroke:none;stroke-width:0.228658;stroke-miterlimit:4;stroke-dasharray:none;stroke-opacity:1"
       id="path3046" />
    <path
       sodipodi:nodetypes="cccssscsccsssscsccccsscscccsscsscsssccscscscscssssccsccssccccsccssscccssscccccccccscccscsssccsssscccccccscscscscscssssssscscccsccccssscccssccssssccccccccccccccsssssccsscsccsscssccssscsscscsccsscscccssscssscssccscscsssccccccccscscscsccccscscsscccsssscsssscscscscscssccscsscccssccsccsscssssscscccscscccsssscssccssssssssccscccscssscssccssscssssscssscssscsssscssscsssccsssccsssssssssscsscssssssscssssssscscsscsccssscsscssccc"
       d="m 141.73861,102.45065 c 0.50246,-0.6712 0.3405,-0.63862 0.34668,-1.18863 5.3e-4,-0.0397 -0.0304,-0.0914 0.001,-0.11916 0.2386,-0.20904 0.96654,-0.0433 1.26783,-0.10779 0.18885,-0.0404 0.44418,-0.0453 0.60125,-0.11377 0.0693,-0.0302 0.0654,-0.0878 0.13466,-0.11796 0.037,-0.0161 0.23775,-0.0487 0.26731,-0.0572 0.4043,-0.11644 0.6807,-0.11307 1.13452,-0.10899 0.0805,7.1e-4 0.53252,0.005 0.39995,0.004 m -6.56697,3.03961 c 0.25828,-0.39812 0.60104,-0.73463 1.01126,-1.00391 0.11797,-0.0775 0.33864,-0.11792 0.4686,-0.17456 0.10719,-0.0467 0.29278,0.0503 0.39997,0.004 0.0282,-0.0123 0.0374,-0.0504 0.0673,-0.059 0.13707,-0.0395 0.32469,0.0282 0.4666,0.004 0.17929,0.10289 0.1734,-0.0895 0.26797,-0.11676 0.26214,-0.0755 0.72521,0.007 0.99987,0.009 0.4779,0.004 0.8667,0.0674 1.33248,0.0716 0.0744,7e-4 0.67554,0.006 0.53326,0.005 m 2.91519,-4.323766 c 0.21426,-0.05264 0.45232,0.05863 0.66658,0.006 0.0606,-0.01489 0.0748,-0.10074 0.13465,-0.117969 0.0846,-0.02436 0.17852,0.01283 0.26663,0.0024 0.15723,-0.01864 0.27898,-0.06227 0.40129,-0.115568 0.0399,-0.01742 0.091,0.01338 0.13331,0.0011 0.297,-0.08553 0.4002,-0.01879 0.40331,-0.294318 m -14.06213,-6.263915 c 0.24476,-0.03755 0.49537,-0.05212 0.7343,-0.112634 0.79237,-0.200682 0.10219,-0.08909 0.60395,-0.352101 0.0383,-0.0201 0.091,0.01338 0.13331,0.0011 0.0599,-0.01722 0.0748,-0.100737 0.13466,-0.117967 0.15632,-0.04502 0.44311,-0.118213 0.60193,-0.173355 0.0586,-0.02034 0.0782,-0.09335 0.13466,-0.117965 0.30674,-0.133662 0.68579,-0.178728 1.00321,-0.288926 0.31,-0.107621 0.68621,-0.346697 1.0692,-0.228747 0.15822,0.04873 0.4268,0.208662 0.52992,0.302706 0.0156,0.01418 -0.0163,0.0454 -8e-4,0.05959 0.0311,0.02837 0.0938,-0.01692 0.13331,0.0011 0.0857,0.03926 0.26453,0.18105 0.33061,0.241326 0.033,0.03008 0.0323,0.08967 0.0653,0.119765 0.11528,0.105138 0.34872,0.257845 0.46258,0.361687 0.0156,0.01418 -0.0163,0.0454 -7.9e-4,0.05958 0.15693,0.143126 0.66698,0.186944 0.79654,0.305103 0.0156,0.01418 -0.0163,0.0454 -8e-4,0.05958 0.0593,0.05401 0.33939,0.06874 0.39861,0.12276 0.0156,0.01418 -0.0205,0.05052 -7.9e-4,0.05958 0.13761,0.06305 0.38661,0.02568 0.53259,0.06438 0.0953,0.02527 0.17133,0.09263 0.26528,0.121562 0.10083,0.03105 0.94802,0.04451 1.13253,0.06978 0.11619,0.0159 0.65058,-0.06877 0.73322,0.0066 0.0156,0.01418 -0.0163,0.0454 -7.9e-4,0.05959 0.0311,0.02837 0.0938,-0.01692 0.13332,0.0011 0.0442,0.02027 0.13214,0.105189 0.13264,0.06079 2.2e-4,-0.01987 -0.0822,-0.0148 -0.0666,-7.07e-4 0.0348,0.03172 0.0916,0.03578 0.13264,0.06079 0.0993,0.06042 0.13984,0.187735 0.19729,0.240127 0.0341,0.03115 0.16448,0.08981 0.19863,0.120963 0.0586,0.05339 0.0751,0.223901 0.12997,0.299113 0.068,0.09318 0.1305,0.119025 0.19796,0.180543 0.0874,0.07966 0.004,0.251268 0.0626,0.358094 0.0353,0.06484 0.0966,0.05553 0.13197,0.120364 0.11347,0.208063 0.0875,0.464417 0.1926,0.657206 0.0261,0.0479 -0.0281,0.130842 -0.002,0.178749 0.01,0.01787 0.0599,-0.01831 0.0666,7.08e-4 0.0583,0.161538 -0.0219,0.38539 0.0607,0.536842 0.23497,0.430844 0.72437,0.481871 1.19247,0.666195 0.0733,0.02887 0.12288,0.09763 0.19863,0.120963 0.18459,0.05686 0.38811,-0.02923 0.46459,0.18294 0.0137,0.03781 -0.0207,0.08347 -0.001,0.119165 0.01,0.01787 0.0469,-0.0084 0.0666,7.08e-4 0.0438,0.02008 0.1114,0.143425 0.13131,0.179945 0.0261,0.0479 -0.0281,0.130841 -0.002,0.178749 0.0217,0.03992 0.11088,0.02086 0.13264,0.06077 0.0422,0.07738 0.012,0.228128 0.0633,0.298514 0.0515,0.07058 0.17602,0.09859 0.19796,0.180544 0.0156,0.05795 -0.0176,0.120797 -0.002,0.178748 0.0146,0.05462 0.1127,0.0669 0.13197,0.120364 0.0136,0.03781 -0.0208,0.08346 -9.9e-4,0.119164 0.01,0.01787 0.0511,-0.01359 0.0666,7.08e-4 0.0419,0.03817 -0.0298,0.188472 -0.003,0.238331 0.0481,0.08817 0.0876,0.07985 0.13199,0.120363 0.0311,0.02837 -0.0208,0.08346 -0.001,0.119164 0.0408,0.07484 0.14027,0.248311 0.19663,0.29971 0.033,0.03008 -0.0329,-0.03009 0,0 0.0679,0.06195 0.10582,0.283255 -0.003,0.462798 m -24.1312,-6.281163 c 0.59982,-0.281186 1.24506,-0.16061 1.87045,-0.340718 0.0183,-0.0053 0.77492,-0.07577 0.66858,-0.172757 -0.0219,-0.02005 -0.0988,0.0587 -0.0673,0.05898 0.20511,0.0019 0.5034,-0.38201 0.60528,-0.47127 0.14666,-0.128489 0.3902,-0.105854 0.53594,-0.233536 0.0159,-0.0139 -0.0152,-0.04568 7.9e-4,-0.05958 0.16302,-0.142815 0.77572,-0.223405 1.00321,-0.288924 0,0 0.16878,-0.132837 0.26866,-0.176352 0.11713,-0.05105 0.27544,-0.01994 0.40061,-0.05598 0.20453,-0.05891 0.40425,-0.175813 0.60261,-0.232938 0.10574,-0.03045 0.22753,0.03345 0.33327,0.003 0.0212,-0.0061 -0.0192,-0.05088 8e-4,-0.05958 0.0842,-0.03667 0.32007,0.0266 0.39994,0.0036 0.0212,-0.0061 -0.0209,-0.05496 8e-4,-0.05958 0.19288,-0.04127 0.45965,-0.05546 0.66724,-0.05359 0.19997,0.0019 0.39994,0.0036 0.59992,0.0054 0.0444,4.72e-4 0.13286,0.04093 0.13331,0.0011 5.3e-4,-0.03972 -0.17775,-0.0017 -0.13331,-0.0011 0.0687,7.08e-4 0.38643,-0.03254 0.46661,0.0042 0.056,0.02563 0.08,0.08872 0.13198,0.120363 0.12196,0.07428 0.28213,0.129283 0.39794,0.182342 0.276,0.12648 -0.0712,-0.0047 0.0653,0.119764 0.0926,0.08448 0.26963,0.185716 0.3306,0.241326 0.0276,0.02522 0.0449,0.143055 0.0647,0.179349 0.0996,0.182575 0.32792,0.299073 0.46191,0.421271 0.0156,0.01418 -5.3e-4,0.03972 -7.9e-4,0.05958 0.0217,0.03992 0.0305,0.08805 0.0653,0.119765 0.0156,0.01418 0.0511,-0.01359 0.0666,7.07e-4 0.0383,0.03497 0.0365,0.188608 0.0639,0.238929 0.0275,0.05049 0.1127,0.0669 0.13197,0.120364 0.0204,0.05672 -0.0312,0.125188 -0.002,0.178749 0.0275,0.05049 0.1127,0.06689 0.13197,0.120364 0.0455,0.126194 0.19941,0.480654 0.32725,0.539237 0.0514,0.02354 0.15325,0.03334 0.19931,0.06137 0.052,0.03163 0.08,0.08872 0.13197,0.120364 0.0636,0.03875 0.25732,-0.009 0.33328,0.003 0.28567,0.04521 0.44345,0.123163 0.7319,0.125755 0.11111,9.39e-4 0.22219,0.0019 0.33329,0.003 0.0222,2.01e-4 0.0664,0.02046 0.0666,7.08e-4 2.3e-4,-0.01987 -0.0866,0.0082 -0.0666,-7.08e-4 0.14725,-0.06416 0.20089,-0.05798 0.26798,-0.116768 0.0317,-0.02781 -0.0304,-0.09136 0.001,-0.119164 0.0336,-0.02949 0.10031,-0.0289 0.13397,-0.05838 0.0537,-0.04697 -0.0158,-0.16316 0.0693,-0.237731 m -21.87905,1.173644 c 0.27867,-0.906766 0.9524,-1.560143 2.0138,-1.23326 0.13997,0.04311 0.32287,-0.02931 0.46661,0.0042 0.33168,0.07729 0.72709,0.107343 1.06652,0.0096 0.13195,-0.038 0.206,-0.119412 0.33529,-0.175751 0.0399,-0.01742 0.0889,7.08e-4 0.13333,0.0011 0.0893,-0.03893 0.18225,-0.07184 0.26796,-0.116767 0.0542,-0.02842 0.0748,-0.10074 0.13466,-0.117969 0.13936,-0.04013 0.26593,-0.0267 0.40129,-0.115569 0.24602,-0.161509 0.40178,-0.333476 0.87191,-0.468875 0.0724,-0.02083 0.19546,0.01235 0.26663,0.0024 0.20352,-0.02845 0.31562,-0.0486 0.46793,-0.114969 0.18622,-0.08115 1.50455,0.124548 1.7311,0.194323 0.12598,0.03879 0.27755,0.127179 0.39793,0.182341 0.0707,0.03242 0.19589,-0.03001 0.26664,0.0024 0.0198,0.009 -0.0204,0.05051 -8e-4,0.05958 0.0395,0.01812 0.0913,-0.01176 0.13332,0.0011 0.0637,0.01965 0.11983,0.114798 0.13198,0.120364 0.0395,0.01812 0.0938,-0.01692 0.13332,0.0011 0.0395,0.01812 -8e-4,0.07944 -0.001,0.119166 -0.002,0.200064 -0.0389,0.432004 -0.27267,0.533845 -0.0199,0.0087 -0.0508,-0.01451 -0.0666,-7.07e-4 -0.0159,0.0139 0.0152,0.04569 -7.9e-4,0.05959 -0.0159,0.0139 -0.0508,-0.01452 -0.0666,-7.08e-4 -0.0159,0.0139 0.009,0.0419 -8e-4,0.05958 -0.14149,0.246721 0.005,-0.06366 -0.13398,0.05838 -0.0748,0.06557 -0.30986,0.306631 -0.33732,0.3545 -0.067,0.116829 -0.33406,0.0667 -0.33529,0.175753 m -0.97076,3.328561 c -0.0434,-0.369865 0.24,-0.710542 0.41135,-1.009309 0.033,-0.05761 0.0363,-0.180118 0.0693,-0.237731 0.0286,-0.05 0.10598,-0.06797 0.13465,-0.117966 0.31024,-0.540947 0.9176,-1.065789 1.61386,-1.236854 0.42533,-0.104502 0.97015,-0.177834 1.20251,-0.227549 0.12619,-0.02699 0.2722,0.02525 0.39996,0.0036 0.77699,-0.131655 -0.62383,0.02294 0.5346,-0.114372 0.0748,-0.0088 1.82331,-0.03292 1.93307,0.01736 0.11143,0.05106 0.26078,0.258796 0.32993,0.300908 0.0367,0.02237 0.0938,-0.01692 0.13332,0.0011 0.0626,0.02874 0.35161,0.561441 0.39325,0.599421 0.0156,0.01418 0.057,-0.01725 0.0666,7.07e-4 0.0195,0.0357 -0.015,0.08136 -0.001,0.119166 0.0255,0.07082 0.16124,0.11321 0.19795,0.180545 0.0389,0.07134 0.0703,0.244764 0.12997,0.299111 0.0156,0.01418 0.0511,-0.01359 0.0666,7.08e-4 0.0695,0.06344 0.061,0.176092 0.13064,0.239529 0.0348,0.03172 0.0979,0.02907 0.13264,0.06077 0.0156,0.01418 -5.3e-4,0.03972 -7.9e-4,0.05959 0.0218,0.03991 0.0258,0.09276 0.0653,0.119764 0.0558,0.03818 0.13942,0.02853 0.1993,0.06137 0.0935,0.05128 0.2231,0.20821 0.33061,0.241326 0.12409,0.03822 0.2213,0.02126 0.33195,0.122158 0.0156,0.01418 -0.0205,0.05052 -8e-4,0.05958 0.0916,0.04198 0.23376,0.03214 0.33262,0.06258 0.0595,0.01831 0.076,0.09474 0.13198,0.120364 0.0524,0.024 0.14394,-0.01545 0.19997,0.0019 0.48121,0.148201 -0.1049,-0.01812 0.19864,0.120963 0.0707,0.03242 0.19587,-0.03002 0.26661,0.0024 0.31319,0.143509 -0.40649,-0.03499 0.26531,0.121561 0.30659,0.07145 0.55684,-0.112574 0.81969,-0.112574 m 3.8e-4,2.735178 c -0.1273,-0.01884 -0.25671,-0.02869 -0.38192,-0.05658 -0.12521,-0.02789 0.26383,0.01007 0.38192,0.05658 0.40042,0.157677 0.44137,0.189169 0.81523,0.192528 0.15506,0.0014 0.23403,-0.05748 0.40062,-0.05598 0.0222,2.01e-4 0.0889,4.73e-4 0.0666,7.08e-4 -0.4275,2.13e-4 -0.855,0 -1.28251,0 m -9.3462,2.585847 c -0.01,-0.25575 0.36724,-0.3483 0.47263,-0.53205 0.032,-0.0559 0.0185,-0.13418 0.0686,-0.17815 0.0879,-0.077 0.5222,-0.2215 0.60327,-0.29252 0.0159,-0.0139 -0.0152,-0.0457 7.9e-4,-0.0596 0.21101,-0.18485 0.56047,-0.30878 0.80525,-0.46947 0.13803,-0.0906 0.20689,-0.26888 0.33732,-0.3545 0.0567,-0.03717 0.14179,-0.02348 0.20063,-0.05778 0.0191,-0.01112 0.046,-0.15825 0.0686,-0.17815 0.0336,-0.02949 0.10033,-0.0289 0.13399,-0.05838 0.0707,-0.06195 0.14068,-0.30023 0.204,-0.355699 0.0825,-0.07224 0.19662,-0.08187 0.26864,-0.176352 0.0279,-0.0367 0.0325,-0.08747 0.068,-0.118564 0.0838,-0.07346 0.42006,-0.183042 0.53594,-0.233538 0.0371,-0.01619 0.0962,0.01739 0.13331,0.0011 0.0565,-0.02462 0.0782,-0.09335 0.13466,-0.117967 0.0704,-0.03069 0.25321,0.0023 0.33328,0.003 0.34433,0.0031 0.64588,0.116288 0.93052,0.246719 0.0796,0.03646 0.11839,0.144076 0.19798,0.180544 0.0725,0.03324 0.19718,0.05946 0.26528,0.121562 0.0981,0.08941 0.16448,0.210199 0.26329,0.30031 0.0656,0.05991 0.15692,0.04448 0.19863,0.120961 0.01,0.01787 -0.0163,0.0454 -7.9e-4,0.05959 0.20304,0.18518 0.52411,0.297425 0.72786,0.483254 0.022,0.02 0.0427,0.15928 0.0647,0.17934 0.13653,0.12452 -0.003,-0.18843 0.13265,0.0608 0.0261,0.0479 -0.0281,0.13085 -0.002,0.17875 0.01,0.0179 0.0511,-0.0136 0.0666,7.1e-4 0.13653,0.12452 -0.2107,-0.007 0.0653,0.11976 0.0198,0.009 0.0598,-0.0183 0.0666,7.1e-4 0.0332,0.0921 0.20676,1.17576 0.11924,1.25244 -0.0159,0.0139 -0.0508,-0.0145 -0.0666,-7.1e-4 -0.0661,0.0579 -0.15542,0.271 -0.204,0.3557 -0.0203,0.0354 0.019,0.0838 -10e-4,0.11916 -0.0144,0.025 -0.0449,0.0393 -0.0673,0.059 -0.0224,0.0197 -0.053,0.034 -0.0673,0.059 -0.0738,0.12872 -0.0733,0.59197 -0.0754,0.77397 -5.3e-4,0.0504 -0.037,0.20702 -0.003,0.23834 0.1148,0.10469 0.43096,0.0635 0.59926,0.065 0.11975,0.001 0.80948,-0.0602 0.86788,-0.11138 0.13282,-0.11636 0.19699,-0.34957 0.33866,-0.47366 0.0336,-0.0295 0.10033,-0.0289 0.13399,-0.0584 0.0317,-0.0278 -0.0189,-0.0838 0.001,-0.11917 0.0408,-0.0711 0.16118,-0.10581 0.20198,-0.17695 0.13875,-0.24193 0.23884,-0.38827 0.34066,-0.65241 0.0282,-0.0732 0.14014,-0.59457 0.14002,-0.59463 -0.0762,-0.0354 -0.1719,0 -0.25785,0 m -16.65669,-1.581777 c 1.01924,0.204657 1.94799,0.315447 2.99624,0.324877 0.25954,0.002 0.7676,0.026 1.00121,-0.11018 0.15252,-0.08891 0.28493,-0.181046 0.46928,-0.234139 0.10376,-0.02987 0.31601,-0.09985 0.40196,-0.175152 0.0159,-0.01389 -0.01,-0.0419 8e-4,-0.05958 0.0521,-0.0908 0.11929,-0.04552 0.2013,-0.117368 0.0493,-0.04317 0.12287,-0.166633 0.20266,-0.236533 0.0661,-0.05792 0.30624,-0.133446 0.40195,-0.175152 0.12669,-0.0552 0.61858,0.03959 0.66525,0.125156 0.0195,0.0357 -0.0207,0.08347 -0.001,0.119164 0.006,0.01169 0.11833,0.04771 0.13264,0.06078 0.0878,0.0801 0.15697,0.312554 0.19529,0.418873 0.0173,0.04776 0.27939,0.329851 0.32859,0.420071 0.0431,0.079 0.002,0.3634 0.062,0.41768 0.0156,0.0142 0.0569,-0.0172 0.0666,7.1e-4 0.0195,0.0357 -0.015,0.0814 -9.9e-4,0.11916 0.0132,0.0365 0.11815,0.14347 0.1313,0.17995 0.11685,0.32416 0.12568,1.00756 -0.0141,1.25123 -0.0469,0.0817 -0.15724,0.0787 -0.20132,0.11737 -0.0224,0.0196 -0.0462,0.15849 -0.0686,0.17815 -0.11931,0.10454 -0.64261,0.4579 -0.80591,0.52905 -0.0399,0.0174 -0.0934,-0.0186 -0.13332,-0.001 -0.13818,0.0602 -0.2735,0.11918 -0.40196,0.17516 -0.0529,0.023 -0.14358,-0.0181 -0.19997,-0.002 -0.0762,0.022 -0.12506,0.0954 -0.20132,0.11736 -0.13102,0.0377 -0.26788,0.0178 -0.40061,0.056 -0.043,0.0124 -0.38855,0.11002 -0.40129,0.11557 -0.0199,0.009 0.0152,0.0457 -7.9e-4,0.0596 -0.027,0.0237 -0.16215,-0.0127 -0.19997,-0.002 -0.15247,0.0439 -0.26418,0.11512 -0.40196,0.17515 -0.0845,0.0368 -0.2441,0.0174 -0.33396,0.0566 -0.0565,0.0246 -0.0781,0.0934 -0.13465,0.11797 -0.0399,0.0174 -0.0934,-0.0186 -0.13332,-0.001 -0.0775,0.0338 -0.36462,0.16848 -0.40262,0.23474 -0.14419,0.25141 -0.27188,0.46373 -0.27535,0.77217 -0.002,0.12989 -0.0683,0.42202 -0.006,0.53625 0.18854,0.34568 0.98571,0.48948 1.39647,0.31049 0.0846,-0.0369 0.3353,0.0602 0.39994,0.004 0.0159,-0.0139 -0.0179,-0.0487 7.9e-4,-0.0596 0.15746,-0.0918 1.30377,-0.17643 1.53446,-0.10538 0.43004,0.13243 0.70354,0.35231 1.12715,0.54642 0.0914,0.0419 0.0881,0.14055 0.13131,0.17995 0.0695,0.0634 0.33485,0.185 0.2653,0.12156 -0.25397,-0.23162 0.0221,0.07 0.13196,0.12037 0.0594,0.0272 0.13695,-0.0176 0.19997,0.002 0.0257,0.008 0.65965,0.18905 0.7319,0.12575 0.0159,-0.0139 -0.0192,-0.0509 8e-4,-0.0596 0.14748,-0.0643 1.19048,-0.16806 1.26851,-0.16736 M 109.35138,95.485658 c 0.0392,0.438067 -0.21061,0.776133 -0.41268,1.128475 -0.0553,0.09639 0.0539,0.02276 -10e-4,0.119165 -0.14149,0.24672 0.005,-0.06366 -0.13398,0.05838 -0.0337,0.02949 0.0316,0.149256 -0.002,0.178748 -0.0159,0.01389 -0.0508,-0.01452 -0.0667,-7.08e-4 -0.0105,0.0092 -0.013,0.228952 -0.003,0.238331 0.044,0.04012 0.15531,0.02126 0.1993,0.06137 0.13653,0.124519 -0.2107,-0.0067 0.0653,0.119766 0.21937,0.100522 0.51326,0.145355 0.73055,0.244921 0.005,0.0025 0.2762,0.26818 0.32994,0.300908 0.0367,0.02237 0.0938,-0.01692 0.13332,0.0011 0.0783,0.0359 0.12492,0.136065 0.19796,0.180545 0.12399,0.07551 0.20795,0.04665 0.33194,0.122162 0.37794,0.230154 0.65306,0.415015 0.92584,0.663796 m 6.12682,6.490783 c 0.036,-0.3918 0.009,-0.75465 -0.45655,-0.89794 -0.18221,-0.0561 -0.36362,-0.10673 -0.53125,-0.18353 -0.0746,-0.0342 -1.53071,-0.0937 -1.59911,-0.074 -0.0598,0.0172 -0.0735,0.10489 -0.13466,0.11796 -0.0864,0.0185 -0.20315,-0.058 -0.26663,-0.002 -0.0202,0.0177 -0.0346,0.11893 -0.13398,0.0584 -0.18384,-0.11195 -0.0914,-0.15556 -0.19663,-0.29971 -0.15664,-0.21467 -0.24146,-0.36268 -0.32658,-0.59882 -0.0204,-0.0567 0.0312,-0.12518 0.002,-0.17874 -0.0138,-0.0252 -0.0587,-0.0329 -0.066,-0.0602 -0.0789,-0.29477 0.0225,-0.62757 -0.12326,-0.89494 -0.0348,-0.0639 0.0375,-0.17445 0.003,-0.23833 -0.01,-0.0179 -0.0511,0.0136 -0.0667,-7.1e-4 -0.0405,-0.0369 -0.008,-0.45291 -0.06,-0.59642 -0.0237,-0.0657 0.0471,-0.63125 0.074,-0.65481 0.0317,-0.0278 0.0934,0.0186 0.13331,0.001 0.0632,-0.0275 0.0259,-0.12828 0.0687,-0.17815 0.0851,-0.0993 0.56341,-0.43941 0.67194,-0.47067 0.0423,-0.0122 0.0934,0.0186 0.13332,0.001 0.02,-0.009 5.3e-4,-0.0397 7.9e-4,-0.0596 0.0224,-0.0196 0.0374,-0.0504 0.0673,-0.059 0.0423,-0.0122 0.0934,0.0186 0.13331,0.001 0.02,-0.009 -0.0193,-0.0509 8e-4,-0.0596 0.10872,-0.0474 0.28343,0.0372 0.39994,0.004 0.19362,-0.0558 1.48055,-0.16185 1.66779,-0.104186 0.17481,0.05383 0.54739,0.146856 0.73256,0.06618 0.23072,-0.100532 0.23365,-0.07703 0.40196,-0.17515 0.0186,-0.01085 -0.0152,-0.04568 7.9e-4,-0.05958 0.0224,-0.01965 0.1782,-0.03812 0.20064,-0.05779 0.13228,-0.115889 0.29159,-0.450019 0.40732,-0.651814 0.0287,-0.04999 0.10599,-0.06797 0.13466,-0.117968 0.0516,-0.08995 0.007,-0.155802 0.0693,-0.23773 0.0531,-0.06964 0.17127,-0.09728 0.20198,-0.176951 0.0145,-0.03754 -0.0132,-0.0816 0.001,-0.119165 0.0205,-0.05311 0.10599,-0.06797 0.13466,-0.117966 0.0167,-0.02919 0.19189,-0.382142 0.20466,-0.41528 0.0145,-0.03756 -0.0304,-0.09136 0.001,-0.119166 0.0159,-0.0139 0.0565,0.01827 0.0667,7.07e-4 0.0405,-0.07071 -0.0263,-0.163215 0.003,-0.238331 0.0205,-0.05311 0.11418,-0.06485 0.13466,-0.117967 0.0639,-0.16583 0.0285,-0.225022 0.138,-0.415878 0.10611,-0.185017 -0.006,-0.80746 0.0774,-0.952722 0.078,-0.135975 0.14424,-0.951588 0.0794,-1.131471 -0.0139,-0.03844 -0.12308,-0.347306 -0.12929,-0.358693 -0.006,-0.01097 -0.11136,-0.06297 -0.13204,-0.120364 -0.0168,-0.04662 -0.10971,-0.401024 -0.12863,-0.418274 -0.0155,-0.01418 -0.0511,0.01359 -0.0666,-7.08e-4 -0.0909,-0.08289 -0.12639,-0.177696 -0.26395,-0.240728 -0.27602,-0.126477 0.0712,0.0047 -0.0653,-0.119765 -0.13666,-0.124636 -1.10893,0.05584 -1.46781,0.105986 -0.29355,0.04102 -0.63514,-0.0057 -0.93321,-0.0085 -0.0813,-7.09e-4 -0.32334,0.03151 -0.39994,-0.0036 -0.028,-0.01282 -0.0363,-0.05103 -0.066,-0.06018 -0.12911,-0.03976 -0.34574,0.05119 -0.4666,-0.0042 -0.0198,-0.009 0.0162,-0.0454 7.9e-4,-0.05958 -0.0305,-0.02782 -0.15993,0.01656 -0.19998,-0.0019 -0.20524,-0.09404 -0.41301,-0.186986 -0.59723,-0.24372 -0.0565,-0.01739 -0.26119,-0.239462 -0.26395,-0.240728 -0.0663,-0.0304 -0.49492,-0.09022 -0.53192,-0.12396 -5.3e-4,-4.72e-4 -0.0804,-0.119898 -0.0653,-0.119765 0.0314,2.36e-4 0.0974,0.06046 0.066,0.06019 -0.0846,-7.08e-4 -0.34138,-0.130764 -0.39794,-0.182341 -0.0804,-0.07331 -0.0297,-0.133403 -0.1313,-0.179948 -0.32559,-0.149192 -0.63536,-0.28069 -0.9992,-0.06857 -0.0268,0.01564 -0.11632,0.160902 -0.13532,0.17755 -0.16692,0.146225 -0.17645,0.08314 -0.3353,0.175753 -0.0927,0.05402 -0.0749,0.183606 -0.136,0.23713 -0.0348,0.03052 -0.16646,0.08684 -0.20131,0.117369 -0.0243,0.02126 -0.35361,0.545763 -0.40665,0.592229 -0.0309,0.02711 -0.14826,0.07089 -0.20131,0.117369 -0.0355,0.03109 -0.0233,0.0991 -0.068,0.118568 -0.0399,0.01742 -0.0934,-0.01863 -0.13332,-0.0011 -5.2e-4,1.79e-4 -0.23327,0.322358 -0.27065,0.355099 -0.0572,0.05013 -0.1441,0.06724 -0.20131,0.117369 -0.0159,0.01389 0.0152,0.04568 -7.9e-4,0.05958 -0.0502,0.04396 -0.15046,0.01382 -0.20065,0.05779 -0.0691,0.06058 -0.18002,0.216703 -0.26998,0.295516 -0.0744,0.06515 -0.29751,0.114262 -0.40195,0.175154 -0.41244,0.240456 -0.61726,0.548127 -1.0739,0.645822 -0.12091,0.02587 -0.58273,-0.01491 -0.66591,-0.06557 -0.0519,-0.03163 -0.076,-0.09474 -0.13197,-0.120364 -0.11124,-0.05097 -0.29271,-0.02617 -0.39861,-0.122759 -0.0155,-0.01418 0.0162,-0.0454 7.9e-4,-0.05958 -0.0538,-0.04909 -0.33767,-0.007 -0.39927,-0.06319 -0.0348,-0.03172 -0.0305,-0.08805 -0.0653,-0.119764 -0.19158,-0.174725 -0.5752,-0.230306 -0.79587,-0.364683 -0.0519,-0.03163 -0.076,-0.09474 -0.13198,-0.120364 -0.086,-0.03942 -0.3246,-0.05527 -0.3986,-0.122761 -0.0348,-0.03172 -0.0305,-0.08805 -0.0653,-0.119765 -0.20991,-0.191442 -0.53892,0.236145 -0.60328,0.292522 -0.0159,0.0139 -0.0508,-0.01452 -0.0667,-7.07e-4 -0.0501,0.04393 -0.0979,0.203804 -0.13599,0.237132 -0.0159,0.01389 -0.0444,-4.72e-4 -0.0667,-7.09e-4 -0.0224,0.01965 -0.0496,0.03577 -0.0673,0.05898 -0.0793,0.10406 -0.17119,0.267959 -0.27065,0.355097 -0.0159,0.0139 -0.0508,-0.01451 -0.0667,-7.08e-4 -0.052,0.0456 -0.0937,0.20012 -0.136,0.237131 -0.24329,0.213139 -0.91321,0.328066 -1.07189,0.467074 m 5.17089,8.44905 c 0.38829,-0.24689 0.49745,-0.38848 0.74128,-0.7084 0.0439,-0.0576 0.1769,-0.11187 0.20198,-0.17695 0.0145,-0.0376 -0.0189,-0.0838 0.001,-0.11916 0.0101,-0.0177 0.0508,0.0145 0.0666,7.1e-4 0.0364,-0.0319 0.1191,-0.7918 0.1427,-0.83296 0.1043,-0.18185 0.0839,-0.3685 0.27267,-0.53385 0.0159,-0.0139 0.0508,0.0145 0.0666,7.1e-4 0.1393,-0.12204 -0.21082,0.003 0.068,-0.11857 0.0645,-0.0281 0.29976,-0.0266 0.33395,-0.0566 0.0159,-0.0139 -0.0152,-0.0457 8e-4,-0.0596 0.0635,-0.0556 0.17775,0.002 0.26663,0.002 0.13666,0.001 0.22157,-0.0576 0.33396,-0.0566"
       style="fill:none;stroke:#000000;stroke-width:0.249955;stroke-linecap:butt;stroke-linejoin:miter;stroke-miterlimit:4;stroke-dasharray:none;stroke-opacity:0.5"
       id="path2858" />
    <path
       id="path3058"
       d="m 161.26071,79.684537 1.57229,2.457264 -9.74378,6.884286 -6.72377,5.745808 -2.03623,2.57745 -0.33665,0.294916 0.44517,1.910836 -0.87928,1.124283 -1.33517,0.16676 -1.66109,-0.49163 -1.45908,-0.668593 -1.66644,-0.01499 -1.06519,-0.128752 0.478,-1.008711 1.74583,-1.116491 1.67449,-0.700013 1.73243,0.07516 1.07255,-0.526656 1.2166,-1.47878 2.63115,-2.777015 2.22785,-2.482696 3.03579,-3.190499 2.6258,-2.300355 3.15903,-2.295562 2.41711,-1.527577 z"
       style="fill:#59d9b1;fill-opacity:1;stroke:#0d0009;stroke-width:0.249563px;stroke-linecap:butt;stroke-linejoin:miter;stroke-opacity:0.281125" />
  </g>
</svg>
